<?xml version="1.0" standalone="no"?>
<!DOCTYPE svg PUBLIC "-//W3C//DTD SVG 20010904//EN"
 "http://www.w3.org/TR/2001/REC-SVG-20010904/DTD/svg10.dtd">
<svg version="1.0" xmlns="http://www.w3.org/2000/svg"
 width="600.000000pt" height="600.000000pt" viewBox="0 0 600.000000 600.000000"
 preserveAspectRatio="xMidYMid meet">

<g transform="translate(0.000000,600.000000) scale(0.100000,-0.100000)"
fill="#000000" stroke="none">
<path d="M3788 5629 c-30 -17 -21 -51 24 -89 29 -26 40 -41 35 -53 -10 -28
-38 -20 -78 23 -21 22 -41 35 -44 30 -4 -6 11 -29 33 -50 28 -28 48 -40 69
-40 67 0 71 53 8 105 -25 20 -43 41 -40 46 11 17 43 9 75 -17 17 -15 34 -24
37 -20 10 10 -29 47 -64 62 -38 16 -33 16 -55 3z"/>
<path d="M3946 5551 c-4 -6 7 -17 23 -26 l30 -15 -34 -59 c-39 -66 -40 -71
-22 -71 7 0 26 25 42 55 23 42 34 54 48 50 60 -18 63 -18 47 -2 -27 27 -128
78 -134 68z"/>
<path d="M1935 5511 c-36 -11 -95 -45 -95 -54 0 -7 65 -125 75 -135 7 -7 96
51 105 68 33 61 -23 139 -85 121z m41 -29 c23 -15 35 -51 24 -71 -12 -23 -49
-51 -66 -51 -11 0 -70 88 -62 94 1 2 17 11 33 19 33 18 54 21 71 9z"/>
<path d="M4072 5399 c-74 -51 -88 -72 -34 -50 40 17 96 -15 97 -55 0 -15 5
-29 11 -31 12 -4 29 161 19 178 -9 14 -15 11 -93 -42z m68 -19 c0 -34 -7 -37
-36 -16 -19 15 -19 15 1 30 29 22 35 20 35 -14z"/>
<path d="M1718 5394 l-56 -35 38 -65 c21 -36 40 -68 43 -70 8 -8 127 68 121
77 -3 5 -27 -3 -54 -18 -41 -23 -51 -25 -64 -14 -22 19 -20 24 14 45 39 23 29
41 -12 20 -25 -13 -32 -14 -39 -2 -14 21 -12 24 36 49 25 13 45 30 45 36 0 18
-8 16 -72 -23z"/>
<path d="M4208 5324 c-21 -36 -38 -69 -38 -73 0 -12 98 -61 123 -61 29 0 50
22 45 47 -2 10 5 25 16 34 28 23 14 50 -48 87 -30 17 -56 32 -58 32 -1 0 -20
-30 -40 -66z m130 -28 c6 -29 -34 -21 -96 20 -2 1 1 12 8 23 l11 21 37 -24
c20 -13 38 -31 40 -40z m-68 -21 c68 -43 42 -86 -27 -44 -21 12 -39 24 -41 25
-4 2 21 44 26 44 1 0 20 -11 42 -25z"/>
<path d="M1550 5296 c-32 -19 -54 -39 -52 -47 2 -8 19 -40 39 -72 l35 -58 41
24 c23 13 52 30 65 36 12 7 20 16 16 22 -3 6 -24 -1 -51 -16 -54 -30 -69 -31
-77 -8 -7 16 16 43 36 43 4 0 8 7 8 15 0 19 -5 19 -35 -1 -13 -9 -29 -13 -35
-9 -21 13 -9 34 32 57 23 13 43 29 46 36 6 19 -8 14 -68 -22z"/>
<path d="M4386 5228 c-20 -36 -36 -70 -36 -76 0 -26 18 -8 54 54 27 45 35 69
28 76 -7 7 -21 -10 -46 -54z"/>
<path d="M4483 5238 c-5 -7 -24 -39 -42 -70 l-32 -57 26 -15 c14 -9 36 -23 50
-31 13 -8 29 -15 35 -15 22 0 8 17 -30 39 -22 12 -40 27 -40 33 0 6 14 33 31
61 18 30 27 53 21 59 -5 5 -13 4 -19 -4z"/>
<path d="M1355 5184 c-22 -13 -40 -27 -40 -31 0 -19 71 -133 84 -133 9 0 11 6
6 18 -18 44 -17 51 14 66 44 23 66 59 51 85 -15 28 -63 26 -115 -5z m90 -19
c0 -13 -13 -27 -38 -40 -33 -17 -39 -18 -47 -5 -15 24 -12 34 18 52 36 22 67
19 67 -7z"/>
<path d="M3780 5137 c-41 -23 -93 -54 -115 -68 -22 -14 -65 -38 -95 -53 -30
-16 -62 -34 -70 -40 -8 -7 -94 -57 -190 -111 -96 -54 -198 -113 -226 -131 -29
-19 -64 -38 -78 -44 -14 -5 -26 -11 -26 -14 0 -2 55 -36 123 -76 67 -40 142
-85 167 -100 25 -15 230 -134 455 -265 226 -131 471 -274 545 -317 74 -43 141
-76 149 -73 12 5 13 -120 9 -831 l-5 -837 -654 -374 c-360 -206 -682 -391
-716 -410 -35 -19 -63 -39 -63 -44 0 -6 24 -21 53 -34 59 -28 296 -103 342
-109 16 -2 95 -16 175 -29 211 -37 356 -47 620 -42 347 6 295 -7 546 140 120
70 221 129 222 131 2 1 -2 14 -10 27 -32 60 -93 165 -115 201 -14 21 -35 57
-47 80 -12 22 -64 113 -116 201 -51 88 -110 189 -130 225 -28 50 -40 64 -55
62 -23 -4 -24 -5 71 71 244 196 526 569 724 959 l80 157 0 418 c0 230 -3 428
-6 441 l-6 22 -504 -2 -503 -3 -22 70 c-40 125 -175 409 -271 570 -51 86 -176
276 -181 274 -1 0 -36 -19 -77 -42z"/>
<path d="M4587 5101 c-20 -38 -33 -72 -28 -75 11 -7 19 3 59 75 28 50 32 69
13 69 -3 0 -23 -31 -44 -69z"/>
<path d="M4680 5126 c0 -9 4 -16 8 -16 5 0 16 -6 26 -13 17 -12 16 -16 -13
-65 -32 -55 -37 -72 -22 -72 5 0 24 25 41 55 17 30 34 55 36 55 3 0 16 -7 30
-16 28 -19 46 -11 23 10 -8 8 -40 28 -71 46 -46 25 -58 29 -58 16z"/>
<path d="M1193 5095 c-52 -22 -69 -85 -28 -101 9 -4 36 3 62 14 48 21 73 20
73 -3 0 -21 -50 -55 -81 -55 -15 0 -31 -4 -34 -10 -9 -14 58 -13 90 2 35 16
55 56 44 87 -8 19 -14 22 -42 18 -17 -2 -47 -11 -64 -18 -24 -10 -36 -10 -44
-2 -14 14 20 46 58 53 30 6 44 30 16 30 -10 -1 -33 -7 -50 -15z"/>
<path d="M4852 4991 c7 -40 5 -57 -7 -80 -28 -56 -12 -73 19 -20 16 28 36 40
100 63 13 4 16 10 9 17 -6 6 -22 4 -47 -6 -21 -9 -39 -15 -40 -13 -1 2 -7 21
-12 42 -14 61 -33 58 -22 -3z"/>
<path d="M1602 4868 l-154 -8 -241 -142 c-422 -246 -473 -277 -491 -296 -19
-22 -22 -18 105 -233 38 -64 69 -120 69 -124 0 -5 11 -22 24 -39 13 -17 36
-56 51 -86 15 -30 36 -66 45 -80 10 -14 33 -53 51 -85 50 -92 121 -209 131
-216 5 -3 -9 -28 -32 -54 -164 -190 -340 -459 -484 -740 l-66 -129 0 -422 c0
-232 3 -436 6 -453 l6 -31 498 0 c356 0 499 3 502 11 2 6 25 -47 52 -117 90
-239 293 -621 407 -765 l25 -32 85 50 c230 137 310 183 317 183 4 0 25 12 46
26 21 15 84 52 140 83 55 32 143 81 194 111 l93 53 -48 30 c-71 44 -382 227
-778 457 -192 112 -403 234 -468 271 -65 38 -122 69 -128 69 -5 0 -9 327 -9
848 l0 847 303 174 c813 465 1107 636 1107 642 0 23 -276 110 -455 143 -197
37 -259 45 -437 56 -183 11 -246 11 -466 -2z"/>
<path d="M2078 3885 c-117 -30 -199 -84 -245 -162 -21 -36 -27 -63 -31 -123
-11 -190 70 -262 380 -340 215 -53 248 -72 248 -140 0 -127 -263 -133 -462 -9
l-63 39 -78 -82 -79 -83 24 -19 c36 -29 196 -104 263 -122 33 -9 116 -18 185
-21 187 -8 291 22 385 108 110 102 124 284 30 388 -59 65 -137 97 -421 171
-98 26 -141 51 -150 86 -18 72 38 114 152 114 82 0 152 -19 245 -65 l66 -33
67 86 c62 80 66 88 49 100 -38 29 -135 72 -205 93 -96 27 -279 35 -360 14z"/>
<path d="M3635 3881 c-177 -52 -305 -174 -365 -351 -29 -85 -32 -237 -6 -325
55 -185 187 -317 371 -371 77 -22 228 -22 314 0 36 9 88 30 116 46 52 30 145
106 145 118 0 4 -32 40 -70 80 l-69 73 -51 -40 c-76 -60 -148 -84 -241 -79
-184 11 -298 151 -287 352 10 181 128 300 298 301 87 0 149 -20 216 -71 24
-19 48 -34 53 -34 11 0 141 145 141 158 0 17 -81 81 -135 107 -27 13 -77 31
-110 40 -81 21 -243 19 -320 -4z"/>
<path d="M2867 3884 c-4 -4 -7 -243 -7 -531 l0 -523 115 0 115 0 -2 528 -3
527 -106 3 c-58 1 -108 -1 -112 -4z"/>
<path d="M2892 2557 c-87 -32 -141 -111 -142 -205 0 -67 20 -110 75 -161 111
-102 296 -66 366 72 31 60 24 152 -17 209 -41 59 -119 98 -193 97 -31 0 -71
-6 -89 -12z m186 -64 c48 -35 72 -81 72 -135 0 -96 -61 -165 -154 -175 -55 -7
-126 24 -158 69 -22 32 -35 109 -24 152 8 34 54 86 91 102 43 20 138 13 173
-13z"/>
<path d="M1750 2349 l0 -211 133 4 c83 2 141 9 157 17 114 60 150 203 80 314
-45 71 -90 87 -243 87 l-127 0 0 -211z m267 144 c89 -42 107 -178 35 -256 -33
-34 -78 -47 -169 -47 l-73 0 0 160 0 160 86 0 c60 0 97 -5 121 -17z"/>
<path d="M2280 2350 l0 -210 25 0 c25 0 25 1 25 85 l0 85 88 0 87 0 48 -85
c43 -76 51 -85 78 -85 16 0 29 2 29 5 0 3 -21 41 -46 85 l-47 81 41 35 c50 43
63 89 38 140 -30 63 -62 74 -223 74 l-143 0 0 -210z m294 139 c31 -25 34 -66
7 -100 -18 -23 -25 -24 -133 -24 l-113 0 -3 73 -3 72 109 0 c95 0 113 -3 136
-21z"/>
<path d="M3330 2349 l0 -210 28 3 27 3 5 155 5 155 130 -158 c98 -120 134
-157 152 -157 l23 0 0 210 0 210 -25 0 -24 0 -3 -157 -3 -158 -130 157 c-110
133 -134 158 -157 158 l-28 0 0 -211z"/>
<path d="M3860 2350 l0 -210 175 0 175 0 0 25 0 25 -145 0 -145 0 0 75 0 75
86 0 c83 0 85 1 82 23 -3 20 -9 22 -85 25 l-83 3 0 59 0 59 138 3 c134 3 137
4 140 26 l3 22 -170 0 -171 0 0 -210z"/>
<path d="M4898 1168 c-27 -16 -48 -34 -48 -38 0 -12 69 -130 76 -130 12 0 124
66 124 73 0 13 -23 7 -67 -19 -43 -25 -45 -25 -58 -7 -13 16 -12 20 5 35 11 9
26 18 33 21 6 2 9 8 5 12 -4 4 -21 2 -38 -5 -22 -9 -34 -10 -42 -2 -15 15 -3
29 43 52 38 20 52 41 27 39 -7 0 -34 -14 -60 -31z"/>
<path d="M1078 1084 c-21 -36 -38 -70 -38 -75 0 -17 18 -9 34 16 l16 24 46
-24 c57 -30 88 -22 92 23 3 28 -2 35 -52 67 -30 19 -56 35 -58 35 -2 0 -20
-30 -40 -66z m97 5 c22 -13 35 -28 33 -38 -5 -24 -31 -24 -71 -1 -31 19 -35
25 -27 41 13 24 21 24 65 -2z"/>
<path d="M4722 1070 c-78 -48 -55 -160 32 -160 39 0 92 32 101 60 11 35 0 33
-39 -6 -30 -30 -41 -35 -64 -30 -90 22 -53 142 41 127 4 0 7 6 7 14 0 21 -39
19 -78 -5z"/>
<path d="M1258 973 c-37 -25 -65 -50 -62 -55 3 -5 15 -3 27 5 20 13 26 13 60
-4 30 -16 37 -25 37 -49 0 -33 16 -49 24 -23 3 10 6 52 7 93 2 58 -1 75 -12
77 -8 1 -44 -19 -81 -44z m68 -39 c-5 -13 -9 -12 -31 2 l-26 17 28 18 c28 19
28 19 31 -2 2 -11 1 -27 -2 -35z"/>
<path d="M4580 979 c0 -7 11 -32 25 -56 14 -23 22 -43 17 -43 -5 0 -35 9 -67
20 -60 21 -99 26 -93 13 21 -48 76 -133 86 -133 17 0 15 7 -14 57 -14 25 -24
46 -22 48 1 2 36 -8 76 -22 40 -14 76 -22 80 -18 4 3 -10 36 -30 73 -35 63
-58 88 -58 61z"/>
<path d="M1430 959 c1 -8 5 -34 9 -58 7 -36 5 -50 -11 -76 -12 -22 -15 -36 -8
-40 5 -3 19 9 30 27 14 25 34 39 71 52 30 11 47 22 41 28 -5 5 -20 5 -36 -2
-44 -16 -55 -12 -62 25 -6 35 -34 72 -34 44z"/>
<path d="M1575 797 c-19 -35 -35 -68 -35 -73 0 -10 92 -64 109 -64 23 0 9 16
-34 40 -25 14 -45 27 -45 29 0 2 14 28 30 58 31 55 36 73 20 73 -5 0 -25 -29
-45 -63z"/>
<path d="M4334 839 c-9 -15 6 -183 16 -173 5 5 10 20 12 33 4 35 63 69 89 53
23 -15 39 -15 39 -2 0 9 -132 100 -145 100 -2 0 -7 -5 -11 -11z m56 -47 l22
-18 -26 -12 c-21 -9 -26 -9 -26 2 0 8 -3 21 -6 30 -8 21 9 20 36 -2z"/>
<path d="M4178 754 c-54 -33 -80 -65 -40 -49 45 19 49 17 82 -39 29 -52 50
-71 50 -45 0 6 -14 36 -31 66 -30 52 -30 55 -13 68 11 8 22 15 27 15 13 0 8
20 -5 20 -7 0 -39 -17 -70 -36z"/>
<path d="M1723 724 c-53 -53 -4 -144 78 -144 45 0 89 34 89 70 0 85 -108 133
-167 74z m111 -15 c49 -39 23 -109 -41 -109 -56 0 -85 83 -41 114 30 21 50 20
82 -5z"/>
<path d="M4009 657 c-38 -25 -49 -66 -25 -87 13 -10 26 -8 72 10 58 24 83 18
70 -15 -6 -18 -64 -45 -96 -45 -11 0 -20 -4 -20 -10 0 -19 67 -10 101 13 42
28 53 79 20 97 -17 8 -32 6 -71 -11 -37 -16 -54 -19 -62 -11 -16 16 7 40 53
54 22 6 39 15 39 20 0 16 -48 8 -81 -15z"/>
<path d="M1937 585 c-37 -25 -67 -50 -67 -55 0 -14 13 -12 36 4 17 13 23 12
57 -7 29 -16 37 -27 37 -48 0 -47 17 -41 24 8 10 77 7 143 -7 143 -7 0 -43
-20 -80 -45z m65 -25 c-4 -27 -6 -28 -26 -18 -31 16 -31 17 -10 33 30 23 41
18 36 -15z"/>
<path d="M3885 580 c-7 -12 62 -140 76 -140 16 0 10 20 -27 86 -38 68 -39 70
-49 54z"/>
<path d="M2115 509 c-50 -78 -52 -89 -25 -110 42 -31 87 -43 120 -29 36 15 57
62 44 98 -9 26 -78 81 -101 82 -7 0 -24 -18 -38 -41z m81 -10 c36 -22 44 -52
24 -90 -14 -25 -67 -25 -99 0 l-24 18 28 47 c15 25 29 46 32 46 3 0 21 -9 39
-21z"/>
<path d="M3730 494 c-25 -14 -47 -27 -49 -29 -2 -3 62 -117 76 -135 2 -2 24 6
49 20 74 39 90 94 41 148 -27 29 -61 28 -117 -4z m102 -21 c28 -26 22 -59 -17
-88 -39 -31 -48 -28 -75 25 -25 49 -25 55 3 68 33 16 68 14 89 -5z"/>
</g>
</svg>
